<svg xmlns="http://www.w3.org/2000/svg" version="1.1" xmlns:xlink="http://www.w3.org/1999/xlink" width="512" height="512" x="0" y="0" viewBox="0 0 24 24" style="enable-background:new 0 0 512 512" xml:space="preserve" class=""><g><path fill="#937235" d="M20.75 10c0 4.52-6.13 12.75-8.75 12.75-1.34 0-3.61-2.17-5.5-4.9C4.7 15.28 3.25 12.2 3.25 10a8.75 8.75 0 1 1 17.5 0z" opacity="1" data-original="#d62560" class=""></path><path fill="#9c7f4b" d="M18 4.5A13.49 13.49 0 0 1 6.5 17.85C4.7 15.28 3.25 12.2 3.25 10a8.752 8.752 0 0 1 14.72-6.4q.03.45.03.9z" opacity="1" data-original="#ea3d77" class=""></path><circle cx="12" cy="10" r="4.25" fill="#ffffff" opacity="1" data-original="#e5f9f8" class=""></circle></g></svg>